<svg width="72" height="72" viewBox="0 0 72 72" xmlns="http://www.w3.org/2000/svg"><defs><linearGradient id="glass-bg-72" x1="0%" y1="0%" x2="100%" y2="100%"><stop offset="0%" style="stop-color: rgb(102, 126, 234); stop-opacity: 1;"/><stop offset="100%" style="stop-color: rgb(118, 75, 162); stop-opacity: 1;"/></linearGradient><linearGradient id="glass-shine-72" x1="0%" y1="0%" x2="0%" y2="100%"><stop offset="0%" style="stop-color: rgb(255, 255, 255); stop-opacity: 0.4;"/><stop offset="100%" style="stop-color: rgb(255, 255, 255); stop-opacity: 0.05;"/></linearGradient><radialGradient id="clock-glass-72" cx="40%" cy="40%"><stop offset="0%" style="stop-color: rgb(255, 255, 255); stop-opacity: 0.25;"/><stop offset="100%" style="stop-color: rgb(255, 255, 255); stop-opacity: 0.08;"/></radialGradient><filter id="soft-shadow-72"><feGaussianBlur in="SourceAlpha" stdDeviation="1.44"/><feOffset dx="0.72" dy="1.08" result="offsetblur"/><feComponentTransfer><feFuncA type="linear" slope="0.15"/></feComponentTransfer><feMerge><feMergeNode/><feMergeNode in="SourceGraphic"/></feMerge></filter><filter id="inner-glow-72"><feGaussianBlur stdDeviation="0.5760000000000001" result="coloredBlur"/><feMerge><feMergeNode in="coloredBlur"/><feMergeNode in="SourceGraphic"/></feMerge></filter><filter id="blur-72"><feGaussianBlur in="SourceGraphic" stdDeviation="0.14400000000000002"/></filter></defs><rect width="72" height="72" rx="15.84" fill="url(#glass-bg-72)"/><circle cx="14.4" cy="18" r="10.799999999999999" fill="white" opacity="0.05"/><circle cx="57.6" cy="50.4" r="8.64" fill="white" opacity="0.05"/><rect width="72" height="72" rx="15.84" fill="url(#glass-shine-72)"/><g filter="url(#soft-shadow-72)"><circle cx="36" cy="36" r="25.919999999999998" fill="white" opacity="0.15"/><circle cx="36" cy="36" r="23.04" fill="url(#clock-glass-72)"/><circle cx="36" cy="36" r="23.04" fill="none" stroke="white" stroke-width="0.28800000000000003" opacity="0.4"/><circle cx="36" cy="36" r="25.919999999999998" fill="none" stroke="white" stroke-width="0.216" opacity="0.3"/></g><circle cx="36" cy="16.416" r="0.864" fill="white" opacity="0.6" filter="url(#inner-glow-72)"/><circle cx="55.584" cy="36" r="0.864" fill="white" opacity="0.6" filter="url(#inner-glow-72)"/><circle cx="36" cy="55.584" r="0.864" fill="white" opacity="0.6" filter="url(#inner-glow-72)"/><circle cx="16.416" cy="36" r="0.864" fill="white" opacity="0.6" filter="url(#inner-glow-72)"/><circle cx="46.1376" cy="18.44116173318975" r="0.432" fill="white" opacity="0.3"/><circle cx="53.55883826681025" cy="25.8624" r="0.432" fill="white" opacity="0.3"/><circle cx="53.55883826681025" cy="46.1376" r="0.432" fill="white" opacity="0.3"/><circle cx="46.1376" cy="53.55883826681025" r="0.432" fill="white" opacity="0.3"/><circle cx="25.862400000000008" cy="53.55883826681025" r="0.432" fill="white" opacity="0.3"/><circle cx="18.44116173318975" cy="46.1376" r="0.432" fill="white" opacity="0.3"/><circle cx="18.44116173318975" cy="25.8624" r="0.432" fill="white" opacity="0.3"/><circle cx="25.862399999999994" cy="18.441161733189755" r="0.432" fill="white" opacity="0.3"/><g transform="translate(51.839999999999996, 20.160000000000004) rotate(-35)" opacity="0.9" filter="url(#soft-shadow-72)"><ellipse cx="0" cy="0" rx="3.2399999999999998" ry="5.040000000000001" fill="white" opacity="0.25"/><circle cx="0" cy="-1.08" r="1.2959999999999998" fill="white" opacity="0.5"/><path d="M -3.2399999999999998 -5.040000000000001 Q 0 -6.84 3.2399999999999998 -5.040000000000001" fill="white" opacity="0.3"/><ellipse cx="0" cy="6.12" rx="1.8" ry="2.5200000000000005" fill="#fbbf24" opacity="0.4" filter="url(#inner-glow-72)"/></g><g transform="translate(56.160000000000004, 51.839999999999996)" opacity="0.8" filter="url(#soft-shadow-72)"><rect x="-0.432" y="-5.76" width="0.864" height="8.64" rx="0.432" fill="white" opacity="0.3"/><rect x="0" y="-5.76" width="5.76" height="3.6" rx="0.5760000000000001" fill="white" opacity="0.2"/><circle cx="1.44" cy="-4.68" r="0.5760000000000001" fill="white" opacity="0.4"/><circle cx="4.32" cy="-4.68" r="0.5760000000000001" fill="white" opacity="0.4"/><circle cx="2.88" cy="-3.2399999999999998" r="0.5760000000000001" fill="white" opacity="0.4"/></g><g transform="translate(15.84, 51.839999999999996)" opacity="0.7" filter="url(#soft-shadow-72)"><path d="M -2.16 -3.6 L -1.8 -1.44 L 1.8 -1.44 L 2.16 -3.6 Z" fill="white" opacity="0.3"/><rect x="-1.44" y="-1.44" width="2.88" height="2.16" rx="0.36" fill="white" opacity="0.25"/><circle cx="0" cy="-2.7359999999999998" r="0.72" fill="white" opacity="0.5"/></g><g transform="translate(36, 36) rotate(120)"><rect x="-0.5760000000000001" y="-17.28" width="1.1520000000000001" height="18.720000000000002" rx="0.5760000000000001" fill="white" opacity="0.7" filter="url(#inner-glow-72)"/><circle cx="0" cy="-17.28" r="1.2959999999999998" fill="white" opacity="0.8"/></g><g transform="translate(36, 36) rotate(-30)"><rect x="-0.72" y="-11.52" width="1.44" height="12.959999999999999" rx="0.72" fill="white" opacity="0.6" filter="url(#inner-glow-72)"/><circle cx="0" cy="-11.52" r="1.44" fill="white" opacity="0.7"/></g><circle cx="36" cy="36" r="2.5200000000000005" fill="white" opacity="0.2" filter="url(#soft-shadow-72)"/><circle cx="36" cy="36" r="1.8" fill="white" opacity="0.5"/><circle cx="35.424" cy="35.424" r="0.864" fill="white" opacity="0.6"/><g transform="translate(18, 14.4)"><circle cx="0" cy="0" r="1.08" fill="white" opacity="0.4" filter="url(#inner-glow-72)"/></g><g transform="translate(54, 25.2)"><circle cx="0" cy="0" r="0.864" fill="white" opacity="0.4" filter="url(#inner-glow-72)"/></g><g transform="translate(21.599999999999998, 54)"><circle cx="0" cy="0" r="1.2959999999999998" fill="white" opacity="0.4" filter="url(#inner-glow-72)"/></g><g transform="translate(36, 63.36)"><rect x="-28.8" y="-3.6" width="57.6" height="7.2" rx="3.6" fill="white" opacity="0.15" filter="url(#soft-shadow-72)"/><rect x="-28.8" y="-3.6" width="57.6" height="7.2" rx="3.6" fill="none" stroke="white" stroke-width="0.216" opacity="0.3"/><text x="0" y="0.36" text-anchor="middle" dominant-baseline="middle" fill="#000000" font-size="5.3999999999999995" font-weight="800" font-family="system-ui, -apple-system, sans-serif" opacity="0.3" letter-spacing="0.14400000000000002">CLOCK MASTER</text><text x="0" y="0" text-anchor="middle" dominant-baseline="middle" fill="#FFFFFF" font-size="5.3999999999999995" font-weight="800" font-family="system-ui, -apple-system, sans-serif" letter-spacing="0.14400000000000002">CLOCK MASTER</text></g></svg>